<svg xmlns="http://www.w3.org/2000/svg" viewBox="0 0 200 200" width="200" height="200">
  <!-- Milho (Corn Cob without husk) -->
  <defs>
    <clipPath id="clip24">
      <ellipse cx="100" cy="112" rx="34" ry="64"/>
    </clipPath>
  </defs>
  <ellipse cx="100" cy="112" rx="34" ry="64" fill="#D4B06A"/>
  <g clip-path="url(#clip24)">
    <line x1="76" y1="48" x2="76" y2="176" stroke="#BF9A50" stroke-width="1.5"/>
    <line x1="86" y1="48" x2="86" y2="176" stroke="#BF9A50" stroke-width="1.5"/>
    <line x1="96" y1="48" x2="96" y2="176" stroke="#BF9A50" stroke-width="1.5"/>
    <line x1="106" y1="48" x2="106" y2="176" stroke="#BF9A50" stroke-width="1.5"/>
    <line x1="116" y1="48" x2="116" y2="176" stroke="#BF9A50" stroke-width="1.5"/>
    <line x1="126" y1="48" x2="126" y2="176" stroke="#BF9A50" stroke-width="1.5"/>
    <line x1="66" y1="60" x2="134" y2="60" stroke="#BF9A50" stroke-width="1.5"/>
    <line x1="66" y1="74" x2="134" y2="74" stroke="#BF9A50" stroke-width="1.5"/>
    <line x1="66" y1="88" x2="134" y2="88" stroke="#BF9A50" stroke-width="1.5"/>
    <line x1="66" y1="102" x2="134" y2="102" stroke="#BF9A50" stroke-width="1.5"/>
    <line x1="66" y1="116" x2="134" y2="116" stroke="#BF9A50" stroke-width="1.5"/>
    <line x1="66" y1="130" x2="134" y2="130" stroke="#BF9A50" stroke-width="1.5"/>
    <line x1="66" y1="144" x2="134" y2="144" stroke="#BF9A50" stroke-width="1.5"/>
    <line x1="66" y1="158" x2="134" y2="158" stroke="#BF9A50" stroke-width="1.5"/>
  </g>
  <path d="M90 48 Q84 28 80 16" stroke="#E8C5BC" stroke-width="2.5" fill="none" stroke-linecap="round"/>
  <path d="M98 48 Q96 26 96 14" stroke="#E8C5BC" stroke-width="2.5" fill="none" stroke-linecap="round"/>
  <path d="M106 48 Q108 26 110 14" stroke="#E8C5BC" stroke-width="2.5" fill="none" stroke-linecap="round"/>
  <path d="M114 50 Q118 30 122 18" stroke="#E8C5BC" stroke-width="2" fill="none" stroke-linecap="round"/>
  <ellipse cx="100" cy="174" rx="20" ry="7" fill="#BF9A50"/>
  <path d="M100 181 Q100 188 100 192" stroke="#7A6455" stroke-width="3" fill="none" stroke-linecap="round"/>
</svg>
