<svg xmlns="http://www.w3.org/2000/svg" viewBox="0 0 200 200" width="200" height="200">
  <!-- Pera (Pear) -->
  <path d="M100 52 C112 52 124 64 124 84 C140 90 154 108 154 130 C154 158 130 172 100 172 C70 172 46 158 46 130 C46 108 60 90 76 84 C76 64 88 52 100 52 Z" fill="#A3C47E"/>
  <ellipse cx="124" cy="138" rx="28" ry="24" fill="#C9897A" opacity="0.3"/>
  <path d="M100 52 Q96 70 100 90" stroke="#8BAD6E" stroke-width="2" fill="none" stroke-linecap="round"/>
  <ellipse cx="78" cy="102" rx="12" ry="20" fill="#C4DC9E" opacity="0.5"/>
  <path d="M100 52 Q103 38 106 30" stroke="#7A6455" stroke-width="3" fill="none" stroke-linecap="round"/>
  <path d="M106 36 Q124 22 132 36 Q116 50 108 42 Z" fill="#5B7A4E"/>
</svg>
